<?xml version="1.0" standalone="no"?>
<!DOCTYPE svg PUBLIC "-//W3C//DTD SVG 20010904//EN"
 "http://www.w3.org/TR/2001/REC-SVG-20010904/DTD/svg10.dtd">
<svg version="1.0" xmlns="http://www.w3.org/2000/svg"
 width="359.000000pt" height="163.000000pt" viewBox="0 0 359.000000 163.000000"
 preserveAspectRatio="xMidYMid meet">

<g transform="translate(0.000000,163.000000) scale(0.100000,-0.100000)"
fill="#000000" stroke="none">
<path d="M1820 1391 c0 -119 -14 -146 -108 -206 -34 -22 -90 -58 -125 -80 -40
-26 -73 -57 -92 -87 -25 -40 -35 -47 -62 -47 l-33 -1 0 85 c0 49 -4 85 -10 85
-6 0 -11 -114 -12 -307 l-3 -308 -72 -3 -73 -3 6 33 c3 18 7 38 9 44 6 21 -16
97 -36 125 -11 16 -53 48 -92 70 -40 23 -91 62 -114 86 l-43 43 0 110 c0 91
-3 110 -15 110 -12 0 -15 -18 -15 -103 0 -92 -2 -106 -24 -138 -24 -34 -94
-87 -162 -122 -72 -37 -111 -120 -99 -208 l7 -49 -196 0 c-168 0 -196 -2 -196
-15 0 -13 67 -15 568 -13 l567 3 3 223 2 222 435 0 435 0 0 -225 0 -225 545 0
c478 0 545 2 545 15 0 13 -26 15 -174 15 l-174 0 10 47 c18 85 -19 163 -100
210 -81 46 -140 93 -161 127 -18 28 -21 50 -21 135 0 83 -3 101 -15 101 -12 0
-15 -18 -15 -101 0 -140 -14 -160 -167 -253 -34 -20 -71 -49 -82 -64 -30 -42
-42 -102 -32 -155 l8 -47 -73 0 -74 0 0 310 c0 200 -4 310 -10 310 -6 0 -10
-35 -10 -85 l0 -85 -33 0 c-27 0 -36 6 -52 36 -24 45 -77 88 -179 145 -43 24
-96 64 -117 88 l-39 44 0 103 c0 86 -3 104 -15 104 -12 0 -15 -18 -15 -99z
m179 -265 c72 -38 171 -121 171 -144 0 -9 -84 -12 -335 -12 -222 0 -335 3
-335 10 0 25 85 99 162 142 47 26 104 67 128 91 l44 44 45 -46 c26 -26 79 -64
120 -85z m-1009 -272 c25 -25 72 -61 106 -79 68 -39 98 -67 113 -108 14 -35
14 -88 1 -121 l-10 -26 -259 0 -259 0 -6 23 c-12 46 -6 110 15 147 15 27 44
51 99 84 43 25 93 64 111 85 19 22 36 40 39 40 3 1 26 -20 50 -45z m1775 5
c22 -22 69 -58 105 -79 118 -69 145 -120 124 -229 l-6 -31 -263 0 -263 0 -6
23 c-12 46 -6 110 15 146 14 26 44 51 98 84 43 25 93 64 112 86 19 22 36 40
39 40 3 1 24 -17 45 -40z"/>
<path d="M1769 743 c-114 -84 -198 -170 -213 -220 -6 -17 -3 -23 8 -23 9 0 16
5 16 12 0 25 57 92 129 152 129 107 117 104 192 47 84 -64 164 -144 179 -181
14 -33 30 -40 30 -12 0 39 -71 118 -180 201 -41 32 -80 60 -86 64 -7 4 -41
-14 -75 -40z"/>
<path d="M1987 411 c-26 -8 -47 -35 -47 -61 0 -35 23 -55 85 -72 40 -11 52
-19 60 -42 8 -23 6 -30 -10 -42 -29 -22 -73 -17 -100 10 -25 25 -25 25 -36 5
-6 -12 -9 -22 -7 -24 2 -2 34 -7 70 -11 62 -6 68 -5 92 19 49 49 25 95 -64
124 -57 19 -73 40 -50 68 18 22 66 19 84 -6 l14 -21 11 20 c6 12 11 23 11 25
0 6 -96 13 -113 8z"/>
<path d="M276 394 c-21 -21 -20 -67 2 -86 9 -9 34 -21 56 -27 41 -11 76 -37
76 -56 0 -20 -35 -45 -62 -45 -14 0 -37 10 -52 21 -26 21 -28 21 -41 3 -13
-18 -10 -20 28 -26 104 -16 147 1 147 60 0 35 -25 60 -76 74 -50 13 -64 25
-64 55 0 15 8 27 23 33 l22 9 -22 0 c-12 1 -29 -6 -37 -15z"/>
<path d="M357 400 c12 -5 26 -16 31 -25 8 -16 9 -16 16 0 9 25 -1 35 -37 34
-28 0 -30 -1 -10 -9z"/>
<path d="M488 355 c3 -41 0 -55 -10 -55 -11 0 -11 -2 1 -9 9 -6 12 -25 10 -65
-4 -54 -3 -56 21 -56 24 0 25 2 22 60 l-4 60 34 -6 c18 -3 39 -7 46 -10 16 -4
16 -76 0 -92 -9 -9 -5 -12 18 -12 l29 0 0 120 0 120 -28 0 c-25 0 -27 -2 -17
-20 6 -12 10 -35 8 -53 -3 -30 -5 -32 -46 -33 l-44 -1 4 53 c3 52 2 54 -22 54
-24 0 -25 -2 -22 -55z"/>
<path d="M810 388 c0 -32 -23 -73 -39 -73 -8 0 -16 -6 -18 -12 -3 -7 0 -13 6
-13 19 0 12 -36 -14 -74 -14 -20 -25 -39 -25 -41 0 -3 12 -5 28 -5 25 0 27 3
27 44 0 56 11 68 35 36 18 -23 19 -24 37 -7 19 16 20 15 35 -17 12 -25 14 -36
5 -45 -8 -8 -1 -11 26 -11 20 0 37 5 37 10 0 6 -4 10 -9 10 -5 0 -16 21 -25
47 -19 57 -19 53 0 53 9 0 14 6 11 13 -2 6 -12 12 -22 12 -19 0 -50 69 -39 86
3 5 -9 9 -25 9 -25 0 -31 -4 -31 -22z m50 -96 c0 -7 -6 -19 -12 -27 -11 -11
-16 -10 -34 7 -21 19 -21 21 -6 60 l16 40 17 -34 c10 -18 18 -39 19 -46z"/>
<path d="M1028 355 c3 -41 0 -55 -10 -55 -11 0 -11 -2 1 -9 9 -6 12 -25 10
-65 -4 -54 -3 -56 22 -56 25 0 25 1 19 50 -3 27 -4 53 -1 57 3 5 23 8 44 8
l39 0 -4 -58 c-3 -55 -2 -57 22 -57 l25 0 0 120 0 120 -25 0 c-24 0 -25 -2
-22 -55 4 -55 4 -55 -25 -55 -46 0 -56 12 -52 64 4 43 3 46 -21 46 -24 0 -25
-2 -22 -55z"/>
<path d="M1265 290 l0 -120 25 0 25 0 0 120 0 120 -25 0 -25 0 0 -120z"/>
<path d="M1488 305 c3 -73 0 -110 -8 -120 -11 -13 -5 -15 38 -15 96 0 135 35
136 119 2 86 -34 121 -122 121 l-47 0 3 -105z m102 75 c25 -25 34 -61 27 -113
-6 -46 -43 -87 -78 -87 -18 0 -19 8 -19 110 l0 110 25 0 c14 0 34 -9 45 -20z"/>
<path d="M1719 363 c2 -36 -1 -50 -15 -60 -17 -12 -17 -13 0 -13 15 0 17 -8
14 -55 l-3 -55 87 0 c81 0 86 1 81 20 -6 24 -16 25 -33 5 -7 -9 -29 -15 -51
-15 l-39 0 0 55 c0 50 2 55 22 55 12 0 30 -7 40 -17 17 -15 18 -14 18 17 0 27
-3 31 -12 22 -7 -7 -25 -12 -40 -12 -27 0 -28 2 -28 45 0 45 0 45 34 45 19 0
41 -7 50 -15 19 -20 23 -19 36 5 10 19 8 20 -77 20 l-88 0 4 -47z"/>
<path d="M2165 290 l0 -120 25 0 25 0 0 120 0 120 -25 0 -25 0 0 -120z"/>
<path d="M2411 383 c-61 -54 -51 -162 19 -198 16 -8 55 -15 87 -15 l58 0 0 70
0 70 -58 0 c-41 0 -56 3 -51 11 4 7 2 10 -5 8 -28 -10 -13 -24 27 -27 l42 -3
0 -60 c0 -59 0 -59 -29 -59 -48 0 -83 38 -88 96 -6 60 9 101 41 115 33 15 75
3 85 -23 l8 -22 12 23 c7 12 10 25 8 28 -3 2 -32 7 -65 10 -55 5 -61 3 -91
-24z"/>
<path d="M2659 359 c2 -36 -1 -54 -10 -60 -12 -7 -12 -9 0 -9 10 0 12 -14 9
-60 -4 -59 -4 -60 21 -60 25 0 26 2 23 58 l-4 58 42 -4 42 -4 -4 -54 c-3 -52
-2 -54 22 -54 l25 0 0 120 0 120 -25 0 c-24 0 -25 -2 -22 -55 l4 -55 -42 0
-42 0 4 55 c3 53 2 55 -22 55 -24 0 -25 -2 -21 -51z"/>
<path d="M2898 398 c18 -18 15 -79 -5 -94 -17 -13 -17 -13 1 -14 16 0 18 -7
14 -57 l-4 -58 85 3 c47 2 86 4 87 5 2 1 -4 10 -11 21 -13 17 -15 17 -30 2
-10 -9 -33 -16 -56 -16 l-39 0 0 50 c0 56 17 73 51 52 26 -17 29 -15 29 15 0
21 -3 24 -12 15 -7 -7 -25 -12 -40 -12 -27 0 -28 2 -28 45 l0 45 37 0 c20 0
44 -7 54 -16 16 -14 18 -14 29 5 10 21 9 21 -82 21 -71 0 -89 -3 -80 -12z"/>
<path d="M3138 403 c19 -8 15 -83 -5 -99 -17 -13 -17 -13 0 -14 16 0 18 -7 15
-54 l-3 -54 50 -4 c28 -2 67 -1 87 2 32 4 35 7 24 21 -10 15 -14 15 -31 3 -10
-8 -36 -14 -57 -14 l-38 0 0 50 c0 56 17 73 51 52 26 -17 29 -15 29 15 0 21
-3 24 -12 15 -7 -7 -25 -12 -40 -12 -27 0 -28 2 -28 45 l0 45 37 0 c20 0 44
-7 54 -16 16 -14 18 -14 29 5 10 21 9 21 -82 20 -51 0 -87 -3 -80 -6z"/>
</g>
</svg>
